<?xml version="1.0" encoding="UTF-8" standalone="no"?>
<svg width="74px" height="64px" viewBox="0 0 74 64" version="1.1" xmlns="http://www.w3.org/2000/svg" xmlns:xlink="http://www.w3.org/1999/xlink">
    <!-- Generator: Sketch 3.8.3 (29802) - http://www.bohemiancoding.com/sketch -->
    <title>Page 1</title>
    <desc>Created with Sketch.</desc>
    <defs></defs>
    <g id="Mobile---Tablet" stroke="none" stroke-width="1" fill="none" fill-rule="evenodd">
        <g id="3.1-PROJECT" transform="translate(-56.000000, -48.000000)">
            <g id="Page-1" transform="translate(56.000000, 48.000000)">
                <polygon id="Fill-1" fill="#D24F2E" points="0 63.949896 73.9207859 63.949896 73.9207859 0 0 0"></polygon>
                <g id="Group-12" transform="translate(7.821138, 18.151731)" fill="#FEFEFE">
                    <path d="M10.8404385,2.61409664 L10.8404385,0.765729664 C10.8404385,0.765729664 10.8404385,0.34297737 10.4072678,0.34297737 L0.456373442,0.34297737 C0.456373442,0.34297737 0.02320271,0.34297737 0.02320271,0.765729664 L0.02320271,2.61409664 C0.02320271,2.61409664 0.02320271,3.03684893 0.456373442,3.03684893 L3.50681789,3.03684893 C3.50681789,3.03684893 3.93978808,3.03684893 3.93978808,3.45960122 L3.93978808,25.4027939 C3.93978808,25.4027939 3.93978808,25.8255462 4.37295881,25.8255462 L6.49068238,25.8255462 C6.49068238,25.8255462 6.92385312,25.8255462 6.92385312,25.4027939 L6.92385312,3.45960122 C6.92385312,3.45960122 6.92385312,3.03684893 7.35702385,3.03684893 L10.4072678,3.03684893 C10.4072678,3.03684893 10.8404385,3.03684893 10.8404385,2.61409664" id="Fill-2"></path>
                    <path d="M17.6472954,18.9451547 L14.0299187,18.9451547 L14.0222981,18.9451547 C14.0222981,18.9451547 14.0146775,18.9451547 14.0754417,18.5265125 L16.0052575,5.27557676 C16.0052575,5.27557676 16.0660217,4.85713028 16.1259837,5.27557676 L18.0205041,18.5265125 C18.0205041,18.5265125 18.0804661,18.9451547 17.6472954,18.9451547 L17.6472954,18.9451547 Z M18.0714417,0.687931498 C18.0714417,0.687931498 18.005664,0.27026789 17.5724932,0.27026789 L14.6343523,0.27026789 C14.6343523,0.27026789 14.200981,0.27026789 14.1350027,0.687931498 L10.2384715,25.4077847 C10.2384715,25.4077847 10.1726938,25.8254483 10.6058645,25.8254483 L12.6116856,25.8254483 C12.6116856,25.8254483 13.0448564,25.8254483 13.1034146,25.4068061 L13.6414688,21.5664147 L13.647084,21.5664147 L18.020103,21.5664147 C18.020103,21.5664147 18.4534743,21.5664147 18.5156423,21.9846654 L19.0252195,25.4071976 C19.0252195,25.4071976 19.0875881,25.8254483 19.5207588,25.8254483 L21.6011816,25.8254483 C21.6011816,25.8254483 22.0341518,25.8254483 21.968374,25.4077847 L18.0714417,0.687931498 Z" id="Fill-4"></path>
                    <path d="M55.1570732,12.8658202 L51.5388943,10.3175633 C50.6809756,9.69870092 50.196065,9.15264587 50.196065,7.87851743 L50.196065,4.6749945 C50.196065,3.36446239 50.8301789,2.7456 52.1730081,2.7456 L52.6952195,2.7456 C54.0380488,2.7456 54.6721626,3.36446239 54.6721626,4.6749945 L54.6721626,7.96972232 C54.6721626,7.96972232 54.6721626,8.39247462 55.1051328,8.39247462 L57.1484553,8.39247462 C57.1484553,8.39247462 57.581626,8.39247462 57.581626,7.96972232 L57.581626,4.7842055 C57.581626,1.68989358 56.0147913,0.12453578 52.8069214,0.12453578 L52.0611057,0.12453578 C48.815935,0.12453578 47.212,1.68989358 47.212,4.85701284 L47.212,7.9149211 C47.212,9.98993028 47.7715122,11.3004624 49.7111545,12.6473982 L53.3664336,15.2320587 C54.2245528,15.8509211 54.6721626,16.3969761 54.6721626,17.6711046 L54.6721626,21.4934899 C54.6721626,22.804022 54.0380488,23.4228844 52.6952195,23.4228844 L52.0984065,23.4228844 C50.7555772,23.4228844 50.1214634,22.804022 50.1214634,21.4934899 L50.1214634,17.434285 C50.1214634,17.434285 50.1214634,17.0115327 49.6880921,17.0115327 L47.6451707,17.0115327 C47.6451707,17.0115327 47.212,17.0115327 47.212,17.434285 L47.212,21.3842789 C47.212,24.4785908 48.7784336,26.0439486 51.9863035,26.0439486 L52.8069214,26.0439486 C56.0522927,26.0439486 57.6562276,24.4785908 57.6562276,21.3112758 L57.6562276,17.5982972 C57.6562276,15.4140771 57.0592141,14.212756 55.1570732,12.8658202" id="Fill-6"></path>
                    <path d="M41.5795572,21.4569884 C41.5795572,22.7675205 40.9454434,23.3863829 39.6026141,23.3863829 L38.7073946,23.3863829 C37.3643648,23.3863829 36.7302509,22.7675205 36.7302509,21.4569884 L36.7302509,4.71130031 C36.7302509,3.40096391 37.3643648,2.78210153 38.7073946,2.78210153 L39.6026141,2.78210153 C40.9454434,2.78210153 41.5795572,3.40096391 41.5795572,4.71130031 L41.5795572,21.4569884 Z M39.7145165,0.12443792 L38.5954921,0.12443792 C35.3503214,0.12443792 33.7461859,1.68979572 33.7461859,4.8571107 L33.7461859,21.3113737 C33.7461859,24.478493 35.3503214,26.0440465 38.5954921,26.0440465 L39.7145165,26.0440465 C42.9596873,26.0440465 44.5636222,24.478493 44.5636222,21.3113737 L44.5636222,4.8571107 C44.5636222,1.68979572 42.9596873,0.12443792 39.7145165,0.12443792 L39.7145165,0.12443792 Z" id="Fill-8"></path>
                    <path d="M31.559897,23.1316942 L27.5027317,23.1316942 C27.5027317,23.1316942 27.0693604,23.1316942 27.0693604,22.7089419 L27.0693604,0.765749235 C27.0693604,0.765749235 27.0693604,0.342996942 26.6363902,0.342996942 L24.5186667,0.342996942 C24.5186667,0.342996942 24.0854959,0.342996942 24.0854959,0.765749235 L24.0854959,25.4028135 C24.0854959,25.4028135 24.0854959,25.8255657 24.5186667,25.8255657 L31.559897,25.8255657 C31.559897,25.8255657 31.9930678,25.8255657 31.9930678,25.4028135 L31.9930678,23.5544465 C31.9930678,23.5544465 31.9930678,23.1316942 31.559897,23.1316942" id="Fill-10"></path>
                </g>
            </g>
        </g>
    </g>
</svg>